<mxfile host="app.diagrams.net" agent="Mozilla/5.0 (Macintosh; Intel Mac OS X 10_15_7) AppleWebKit/605.1.15 (KHTML, like Gecko) Version/17.6 Safari/605.1.15" version="24.7.8">
  <diagram name="Page-1" id="btyyNkgEG6aQoC9uINRv">
    <mxGraphModel dx="762" dy="620" grid="1" gridSize="10" guides="1" tooltips="1" connect="1" arrows="1" fold="1" page="1" pageScale="1" pageWidth="827" pageHeight="1169" math="0" shadow="0">
      <root>
        <mxCell id="0" />
        <mxCell id="1" parent="0" />
        <mxCell id="FWeRiBfgZnaqoao9xwYH-12" style="edgeStyle=orthogonalEdgeStyle;rounded=0;orthogonalLoop=1;jettySize=auto;html=1;entryX=0.5;entryY=0;entryDx=0;entryDy=0;" edge="1" parent="1" source="FWeRiBfgZnaqoao9xwYH-6" target="FWeRiBfgZnaqoao9xwYH-2">
          <mxGeometry relative="1" as="geometry" />
        </mxCell>
        <mxCell id="FWeRiBfgZnaqoao9xwYH-11" style="edgeStyle=orthogonalEdgeStyle;rounded=0;orthogonalLoop=1;jettySize=auto;html=1;entryX=0.5;entryY=0;entryDx=0;entryDy=0;" edge="1" parent="1" source="FWeRiBfgZnaqoao9xwYH-7" target="FWeRiBfgZnaqoao9xwYH-2">
          <mxGeometry relative="1" as="geometry" />
        </mxCell>
        <mxCell id="FWeRiBfgZnaqoao9xwYH-10" style="edgeStyle=orthogonalEdgeStyle;rounded=0;orthogonalLoop=1;jettySize=auto;html=1;entryX=0.45;entryY=-0.012;entryDx=0;entryDy=0;entryPerimeter=0;" edge="1" parent="1" source="FWeRiBfgZnaqoao9xwYH-5" target="FWeRiBfgZnaqoao9xwYH-7">
          <mxGeometry relative="1" as="geometry" />
        </mxCell>
        <mxCell id="FWeRiBfgZnaqoao9xwYH-9" style="edgeStyle=orthogonalEdgeStyle;rounded=0;orthogonalLoop=1;jettySize=auto;html=1;entryX=0.5;entryY=0;entryDx=0;entryDy=0;" edge="1" parent="1" source="FWeRiBfgZnaqoao9xwYH-5" target="FWeRiBfgZnaqoao9xwYH-6">
          <mxGeometry relative="1" as="geometry" />
        </mxCell>
        <mxCell id="FWeRiBfgZnaqoao9xwYH-8" style="edgeStyle=orthogonalEdgeStyle;rounded=0;orthogonalLoop=1;jettySize=auto;html=1;exitX=0.5;exitY=1;exitDx=0;exitDy=0;" edge="1" parent="1" source="FWeRiBfgZnaqoao9xwYH-1" target="FWeRiBfgZnaqoao9xwYH-5">
          <mxGeometry relative="1" as="geometry" />
        </mxCell>
        <mxCell id="FWeRiBfgZnaqoao9xwYH-1" value="START" style="rounded=1;whiteSpace=wrap;html=1;" vertex="1" parent="1">
          <mxGeometry x="160" y="40" width="120" height="80" as="geometry" />
        </mxCell>
        <mxCell id="FWeRiBfgZnaqoao9xwYH-2" value="END" style="rounded=1;whiteSpace=wrap;html=1;" vertex="1" parent="1">
          <mxGeometry x="160" y="640" width="120" height="80" as="geometry" />
        </mxCell>
        <mxCell id="FWeRiBfgZnaqoao9xwYH-3" value="a (int)&lt;div&gt;&#39;enter a number&#39;&lt;/div&gt;" style="shape=card;whiteSpace=wrap;html=1;" vertex="1" parent="1">
          <mxGeometry x="160" y="160" width="120" height="80" as="geometry" />
        </mxCell>
        <mxCell id="FWeRiBfgZnaqoao9xwYH-4" value="b (int)&lt;div&gt;&#39;enter a number&#39;&lt;/div&gt;" style="shape=card;whiteSpace=wrap;html=1;" vertex="1" parent="1">
          <mxGeometry x="160" y="280" width="120" height="80" as="geometry" />
        </mxCell>
        <mxCell id="FWeRiBfgZnaqoao9xwYH-5" value="a&amp;gt;b" style="rhombus;whiteSpace=wrap;html=1;" vertex="1" parent="1">
          <mxGeometry x="160" y="400" width="120" height="80" as="geometry" />
        </mxCell>
        <mxCell id="FWeRiBfgZnaqoao9xwYH-6" value="print (a)" style="shape=document;whiteSpace=wrap;html=1;boundedLbl=1;" vertex="1" parent="1">
          <mxGeometry x="280" y="520" width="120" height="80" as="geometry" />
        </mxCell>
        <mxCell id="FWeRiBfgZnaqoao9xwYH-7" value="print (b)" style="shape=document;whiteSpace=wrap;html=1;boundedLbl=1;" vertex="1" parent="1">
          <mxGeometry x="40" y="520" width="120" height="80" as="geometry" />
        </mxCell>
        <mxCell id="FWeRiBfgZnaqoao9xwYH-13" value="False" style="text;html=1;align=center;verticalAlign=middle;whiteSpace=wrap;rounded=0;" vertex="1" parent="1">
          <mxGeometry x="130" y="480" width="60" height="30" as="geometry" />
        </mxCell>
        <mxCell id="FWeRiBfgZnaqoao9xwYH-14" value="True" style="text;html=1;align=center;verticalAlign=middle;whiteSpace=wrap;rounded=0;" vertex="1" parent="1">
          <mxGeometry x="250" y="480" width="60" height="30" as="geometry" />
        </mxCell>
      </root>
    </mxGraphModel>
  </diagram>
</mxfile>
